<?xml version="1.0" encoding="utf-8"?>
<!-- Generator: Adobe Illustrator 18.0.0, SVG Export Plug-In . SVG Version: 6.00 Build 0)  -->
<!DOCTYPE svg PUBLIC "-//W3C//DTD SVG 1.1//EN" "http://www.w3.org/Graphics/SVG/1.1/DTD/svg11.dtd">
<svg version="1.1" id="Layer_1" xmlns="http://www.w3.org/2000/svg" xmlns:xlink="http://www.w3.org/1999/xlink" x="0px" y="0px"
	 viewBox="0 0 69.1 54.9" enable-background="new 0 0 69.1 54.9" xml:space="preserve">
<path fill="none" stroke="#FFFFFF" stroke-miterlimit="10" d="M5.6,17.4C4.3,20.9,2.2,24,1.1,27.6c-0.9,3-0.7,6.3-0.3,9.4
	c0.9,8.2,2,16.4,3.3,24.5c1.7,10.9,4.4,23,13.4,29.3c6.2,4.4,14.6,5.1,21.9,3c7.3-2.1,13.7-6.9,18.8-12.5c5.5-6.1,4.5-13.1,5-20.9
	c0.2-3.9,0.4-7.7,0.8-11.6c0.6-5.2,1.6-10.2,3.6-15.1c2.1-5,0.8-8.1-1.7-12.9c-2.4-4.5-4.8-9.1-8.2-12.9s-8-6.8-13.1-7.3
	C38.8,0,33.1,2.8,27.3,3.9c-4.6,0.9-9.4,0.8-13.8,2.5c-4.4,1.7-6.3,4.8-7.4,9.1C6,16.1,5.8,16.8,5.6,17.4z"/>
</svg>
