<?xml version="1.0" encoding="utf-8"?>
<!-- Generator: Adobe Illustrator 22.0.1, SVG Export Plug-In . SVG Version: 6.00 Build 0)  -->
<svg version="1.1" id="Layer_1" xmlns="http://www.w3.org/2000/svg" xmlns:xlink="http://www.w3.org/1999/xlink" x="0px" y="0px"
	 viewBox="0 0 237.1 172.3" style="enable-background:new 0 0 237.1 172.3;" xml:space="preserve">
<style type="text/css">
	.st0{fill:#EEDC00;stroke:#FFFFFF;stroke-width:6;stroke-miterlimit:10;}
	.st1{fill:#76C4D5;}
	.st2{fill:#092A30;}
</style>
<symbol  id="New_Symbol_1" viewBox="-156.2 -113.5 312.4 227">
	<path class="st0" d="M-98.3-94c11.4-4.2,21.3-11.1,33-14.5c9.9-2.8,20.4-2.2,30.5-1.1c26.6,3,53.1,6.6,79.5,10.7
		c35.5,5.5,74.5,14.2,95.1,43.5c14.2,20.2,16.6,47.3,9.6,71.1S127,60,108.7,76.6C89,94.6,66.4,91.5,41,92.8
		c-12.5,0.7-25,1.3-37.5,2.7c-16.7,1.8-33.2,5.1-48.8,11.6c-16.2,6.7-26.2,2.6-41.9-5.5c-14.7-7.7-29.6-15.4-41.9-26.5
		c-12.3-11.1-22.2-25.9-23.8-42.4c-1.9-19.1,7.2-37.4,10.9-56.2c2.9-14.9,2.5-30.6,8-44.7c5.5-14.2,15.6-20.4,29.5-23.9
		C-102.4-92.6-100.3-93.3-98.3-94z"/>
	<g>
		<path class="st1" d="M-74.3,10.3L-74.3,10.3c-2,4.6-6.2,7.3-12.6,8.1c-2.6,0.2-4.7,0.3-6.7,0.3h-7.1c-1.4,0-1.9-0.2-2.2-0.6
			l-0.5-0.5v-0.7c0-0.6,0-1.5-0.1-2.7c0-0.7,0-1.5-0.1-2.4l-0.1-2c0-1.5-0.1-2.6-0.1-3.4V-4c0-0.7,0-1.7,0-2.8c0-1,0-2.1,0-2.7
			v-13.3c0-0.3,0-0.7,0-1.2c0-0.6,0-1.1,0-1.5c0-0.2,0-0.5,0-0.8c0-0.2,0-0.4,0-0.5v-0.3c-0.1-0.4-0.1-0.8-0.1-1
			c0-0.7,0.1-1.2,0.2-1.5c0.6-1.7,3.3-1.7,6.6-1.7c2.9,0,4.2,0.1,4.7,1.5l0.1,0.2v0.2c0.1,2.3,0.1,3.5,0.1,3.5v2.6
			c0,1.1,0,3-0.1,5.6c-0.1,2.5-0.1,4.3-0.1,5.5v1.1h0.5c0.5,0,1.4,0,2.3-0.1c1,0,2-0.1,2.5-0.1c1.7,0,3,0.2,4,0.5
			c2.4,0.9,4.4,2.4,6.1,4.8c2.4,3.2,3.6,6.8,3.6,10.7c0,1.8-0.4,3.5-1.1,5.2L-74.3,10.3z M-85.3,4.3c-0.2-3.3-0.8-3.7-2.4-3.9
			c-0.1,0-0.2,0-0.3,0c-0.8-0.1-1.3-0.2-1.5-0.2c-0.7,0-1.4,0-2,0.1c0,0.7,0,1.5-0.1,2.5c-0.1,1.3-0.1,2.3-0.1,3v2.4h0.8
			c3,0,4-0.4,4.3-0.6C-85.7,6.9-85.3,5.8-85.3,4.3z"/>
		<path class="st1" d="M-65.3,9c0.4,0,1.2,0,1.6,0.1h0.4c0.1,0,0.3,0,0.6,0c0.4,0,1,0,1.3,0c1.9,0,2.8,0.2,3.5,0.9
			c0.5,0.5,0.7,1.2,0.7,3.4v1.1c0,4.7-0.3,5.5-0.9,6.1c-0.7,0.7-1.7,0.8-2.7,0.8h-2h-0.4c-0.4,0.1-0.7,0.1-0.9,0.1h-0.1
			c-0.2,0-0.7,0-1.4-0.1h-1.1c-2.1,0-2.1-2.4-2.1-5.8c0-4.5,0.5-5.3,1-5.9C-67.2,9.1-66.4,9-65.3,9z"/>
		<path class="st1" d="M-56.4-22.3v2.6c0,12.6-0.3,20.9-0.8,25.2v0.2l-0.1,0.2c-0.3,0.9-1.1,1.4-2.4,1.4h-0.5c-0.1,0-0.4,0-0.7,0
			s-0.6,0-0.9,0h-4.6L-66.6,7C-68,6.6-68,5.2-68,2.6c0-1.5,0.1-3.8,0.1-3.9V-3v-0.1c0.5-11,0.7-16.5,0.7-17.5
			c0.2-7.9,0.3-9.6,0.4-10.2v-0.3l0.1-0.2c0.7-1.3,2.4-1.5,4.2-1.5c1,0,1.8,0,2.4,0.1h0.4c0.7,0,2.3,0,3.1,1.3l0.2,0.4v7.6
			c0,0.1,0,0.4,0,0.7C-56.4-22.5-56.4-22.4-56.4-22.3z"/>
		<path class="st1" d="M-9.7,11.1l-0.8,0.1l-0.3,0.3l-1-0.3c-1.3-0.4-1.4-0.4-3.9-13.1l-1-5.2c-0.3-1.4-0.4-2.2-0.5-2.6
			c-0.6,0.9-1.3,1.8-2.1,2.8c-0.7,0.8-1.6,2-2.8,3.5L-25,0c-0.7,0.8-1.6,1.9-2.8,3.2c-1.5,1.7-2.5,3-3.3,3.9
			c-2.2,2.9-5.2,6.4-9.2,10.6l-0.1,0.1c-3.6,3.4-4,3.6-4.7,3.7h-0.4l-0.4-0.1c-1.2-0.4-1.7-1.8-2.2-5.7c-0.3-2.1-0.5-4.3-0.6-6.7
			c-0.2-2.5-0.5-6.2-1.1-11.7c-0.4-3.4-0.7-6.4-1-9c0-0.2,0-0.5-0.1-0.9c0-0.4-0.1-0.9-0.1-1.1c-0.1-0.7-0.2-1.9-0.5-3.5
			s-0.4-2.8-0.5-3.6l-0.2-1.3l-0.3-3.5c-0.1-0.9,0.3-1.9,2.5-2.2c0.2,0,0.8-0.1,3.3-0.2h0.2c0.2,0,0.8-0.2,1.2-0.2
			c0.7-0.1,1.1-0.2,1.4-0.3c2.1-0.3,2.5,0.9,2.6,1.5c0.2,0.7,0.3,2,0.6,4.2c0.1,0.5,0.1,1.2,0.2,1.8c0,0.4,0.1,0.8,0.1,1l0.3,2.9
			c0.2,1.4,0.4,2.4,0.4,3.1c0.4,2.9,0.7,6.6,1.1,11.1c0.2-0.3,0.5-0.6,0.7-0.9l1.6-2c0.7-1,1.7-2.4,3.2-4.2c1.5-1.8,2.5-3.1,3.2-4
			c1.1-1.5,3-3.8,5.5-6.7c3-3.3,4.6-5.4,5.4-6.5c0.8-1.2,1.9-2.6,3.7-4.5c0.4-0.5,1-0.8,1.8-0.9c1.2-0.1,2.2,0.4,2.7,1.5
			c0.3,0.6,0.6,1.7,1.1,4.2v0.1c0.4,2.8,1.1,6.7,2,11.7C-6.7-10-6-5.9-5.5-2.9L-5.4-2c0,0.4,0.1,1,0.3,1.9c0.4,0.3,0.5,1.1,0.6,2
			l0.2,1.4C-4,5-3.8,6.2-3.7,7.2C-3.3,10.4-8.1,10.9-9.7,11.1z"/>
		<path class="st1" d="M35.9,12.9c0.6,0.8,0.9,1.7,0.9,2.5c0,0.3-0.1,0.6-0.2,0.8c-0.7,2.2-3.6,3.2-9.8,3.2c-2.7,0-5.8-0.1-9.1-0.3
			l0,0c-3.3-0.2-6.2-0.3-8.8-0.3c-0.4,0-1,0-1.9-0.1c-0.5,0-1.1,0-1.9-0.1c-0.7,0-1.3-0.1-1.8-0.1c-0.8,0-1.4-0.1-1.8-0.1
			c-0.7,0-2-0.4-2-3c0-0.4,0-1.6,0.3-3.8C0.1,10.1,0.2,9,0.2,8.5c0-1.4,1.1-2.1,3.3-2.1c0.4,0,1,0,1.7,0.1l1,0.1h0.1
			C8,6.7,8.4,6.7,8.5,6.7l8,0.3h0.1c0.5,0,0.9,0.1,1.3,0.1C16.1,3.9,14,0.3,11.6-3.7c-2.9-5-6-10.2-8.6-14.9
			c-0.6-1.2-1.6-3.2-2.9-6.2c-0.9-2.2-0.6-3.8,0.8-4.7l0.2-0.1l0.3-0.1c2.6-0.7,6.2-1.1,10.8-1.1c1.2,0,2.7,0,4.5,0.1h1.8h9.1h0.1
			c1,0.1,3.1,0.1,6,0.1c2.2,0,2.2,2.8,2.2,4.2c0,0.3,0,0.6,0.1,0.8c0,0.3,0,0.6,0.1,0.7v0.2v0.2c0,0.1,0,0.6,0,1c0,0.5,0,1,0,1.1
			c0,1.5-1.5,1.8-2.4,1.9C33-20.3,32-20.1,30.6-20c-2,0.2-7,0.6-13.7,1C22.4-8.2,27.3,0.4,31.5,6.6C33.7,9.5,35.1,11.6,35.9,12.9z"
			/>
		<path class="st1" d="M75.7-23.5c-0.1,3.9-0.5,9.3-1.2,17.7c-0.1,0.7-0.1,2-0.1,3.7v3.7c0.1,1.7,0.1,3,0.1,3.9
			c0,2.1-0.1,3.5-0.1,4.4c0,0.1,0,0.2,0,0.4c0,0.5-0.1,1.3-0.1,2.5c0,0.7,0,1.3-0.1,1.8c0,0.9,0,1.5-0.1,1.9
			c-0.1,1.8-2.2,2.1-6.5,2.4c-3.2,0.2-7.1,0.4-11.5,0.5c-5.4,0.2-6.6,0.2-6.9,0.2h-0.6c-0.9,0.1-1.6,0.1-2.2,0.1
			c-0.4,0-0.8,0-1.2-0.2c-0.6-0.2-1.2-0.8-1.4-2c-0.4-2.5-0.7-6-1-11.4l0,0V6L42.2-9.5l-0.3-13c0-0.5,0-1.5-0.1-2.7
			c0-0.5,0-1-0.1-1.4c0-0.5,0-1-0.1-1.2V-28c0-2.3,3-2.3,6.5-2.3c0.2,0,0.6,0,0.9,0c0.3,0,0.5,0,0.6,0c2.3,0,2.7,0,3.2,0.5
			c0.6,0.6,0.8,1.2,0.8,6.5v0.6c0,0.6,0,1.6-0.1,2.6c0,0.9-0.1,1.9-0.1,2.4v1.1c0.1,0.8,0.1,1.9,0.1,3.3c0,1.1,0,2.1,0,2.9
			c0.5,0,1.4,0,2.2-0.1c1,0,1.9-0.1,2.4-0.1h1c1.6,0,3,0,4,0c0.3-5.2,0.7-11,0.9-16c0-1.9,0.2-3.2,0.7-4.1c0.6-1.1,1.9-1.1,2.7-1.1
			c0.2,0,0.7,0,1.3,0c0.5,0,1,0,1.3,0h3.7c1.9,0,1.9,2.2,1.9,3.6c0,1.2-0.1,2.4-0.1,3.8L75.7-23.5z M54.2,3.9c0,0.4,0,1.3,0,2
			c0,0.8,0,1.6,0,2c0,0.1,0,0.3,0,0.5c0.8-0.1,1.4-0.1,1.7-0.1l1.3-0.1l2.4-0.3c1.1-0.2,2-0.3,2.8-0.3h0.3v-8.1
			c-1.3,0.2-3,0.4-5,0.6l-3.6,0.4L54.2,3.9L54.2,3.9z"/>
		<path class="st1" d="M89.5-24.7H86c-1.5,0-2.1-0.7-2.3-1.3c-0.3-0.5-0.4-1.3-0.4-2.3v-0.1c0.1-1.2,0.2-4.7,0.2-5.1
			c0-0.7,0.4-2,3-2h5.2c2,0,2,2.5,2,3.3v4.8C93.6-26.4,93-24.7,89.5-24.7z"/>
		<path class="st1" d="M93.6,20.7c-0.6,0.7-1.6,1-5.5,1h-3.7c-1.1,0-2.2-0.8-2.2-2.5v-2.7c0-3.2,0.2-7.5,0.5-14.3
			c0.4-6,0.5-11.6,0.5-17.1c0-0.4,0-1.5,0.1-3.3c0-1,0.1-1.7,0.1-2.3c0-0.5,0-0.8,0-0.9c0-1.4,1-2.3,2.4-2.3c0.1,0,0.3,0,0.5,0
			c0.3,0,0.6,0,0.8,0H89h0.1c0.7,0,1.3,0.1,1.7,0.1c1.2,0,2.6,0.8,2.6,3.1c0,0.1,0,0.5,0,0.9c0,0.6,0,1.4,0,1.9v7.3
			c0.1,3.2,0.1,5.6,0.1,7c0,0.9,0,2.1,0.1,3.6l0.1,3.2c0,1.5,0.1,2.6,0.1,3.5s0,2,0.1,3.5l0.1,3.2c0,1.4,0.1,2.5,0.1,3.4v1.5
			C94,19.6,94,20.2,93.6,20.7z"/>
	</g>
	<g>
		<g>
			<g>
				<path class="st2" d="M-52.3,43c0-0.5-0.2-0.9-0.9-1.6l-1.2-1.1l3-3.3l-1.5-1.4l-7.3,7.9l2.9,2.7c0,0,0.2,0.2,0.4,0.3
					c0.6,0.3,1.1,0.2,1.3,0.2c0.5-0.2,0.9-0.7,1.3-1l1-1C-52.6,43.9-52.3,43.5-52.3,43z M-55.5,44.1c-0.2,0.2-0.4,0.5-0.7,0.5
					c-0.4,0.1-0.6-0.3-0.7-0.3l-0.7-0.7l2.1-2.3l0.7,0.7c0.3,0.3,0.4,0.5,0.4,0.7s-0.3,0.5-0.4,0.6L-55.5,44.1z"/>
				<path class="st2" d="M-40.6,45.3l-5.6,9.2l1.7,1l5.6-9.2L-40.6,45.3z"/>
				<path class="st2" d="M-26.5,51.9l-4.4,7l2.8-7.6l-1.8-0.6l-3.5,10.2l2.4,0.8l4.4-6.8l-2.8,7.4l1.7,0.6l3.5-10.2L-26.5,51.9z"/>
				<path class="st2" d="M-12.8,56.7l3.4,0.4l0.2-1.7l-5.6-0.6l-0.1,1.2l2.6,8.1l-3-0.3l-0.2,1.6l5.2,0.5l0.1-1.1L-12.8,56.7z"/>
				<path class="st2" d="M0.5,55.3L1.7,66l5.2-0.6l-0.2-1.6l-3.2,0.4l-0.3-2.5l3-0.3L6,59.8l-3,0.3l-0.4-3.3L6,56.4l-0.2-1.6
					L0.5,55.3z"/>
				<path class="st2" d="M19.1,51.1l0.2,5l-0.7,0.2L17,51.9l-1.9,0.7l3.6,10.1l3.7-1.3c1.2-0.4,1.6-1.2,1.2-2.5L23,57.1
					c-0.4-1-0.8-1.4-1.8-1.3l-0.1-5.3L19.1,51.1z M21.6,59.1c0.2,0.6,0.1,0.9-0.6,1.1l-1,0.3l-1-2.7l1-0.3c0.6-0.2,0.9-0.1,1.2,0.7
					L21.6,59.1z"/>
				<path class="st2" d="M29.6,46.1l5.6,9.2l1.7-1l-5.6-9.2L29.6,46.1z"/>
				<path class="st2" d="M42.2,36.6l1,1.5l-1.3,1.2l-1.4-1.1L39,39.5l8.8,6.5l1.7-1.5l-5.8-9.2L42.2,36.6z M46.8,43.2l-3.7-2.9
					l1-0.9L46.8,43.2z"/>
			</g>
			<g>
				<path class="st2" d="M-51.4-61.7l6.8,6.4l-7.9-5.3l-1.3,1.3l5.4,7.8l-6.5-6.6l-1.4,1.4l7.7,7.5l2.3-2.3l-4.5-6.2l6.3,4.4
					l2.2-2.3l-7.7-7.5L-51.4-61.7z"/>
				<path class="st2" d="M-35.1-72.6c-0.8-0.2-1.7,0.1-2.4,0.5s-1.3,0.9-1.7,1.6c-0.2,0.4-0.2,0.7-0.1,0.8c0,0.4,0.2,0.8,0.4,1.2
					l2.9,5.3c0.1,0.2,0.6,1.2,1.5,1.4c0.5,0.1,1.3,0.1,2.4-0.5c1.4-0.7,1.8-1.7,1.8-2.4c0-0.4-0.1-0.7-0.5-1.4l-2.9-5.2
					C-34-71.9-34.4-72.4-35.1-72.6z M-32.6-65.2c0,0.1,0.3,0.5,0.3,0.8c0,0.2-0.1,0.6-0.5,0.8c-0.1,0.1-0.4,0.2-0.7,0.1
					c-0.5-0.1-0.7-0.5-0.9-0.9l-2.6-4.8c-0.2-0.3-0.4-0.6-0.3-1c0-0.4,0.5-0.6,0.6-0.7c0.1,0,0.3-0.2,0.6-0.1
					c0.4,0.1,0.6,0.4,0.8,0.8L-32.6-65.2z"/>
				<path class="st2" d="M-16.9-76.9c-0.3-1.1-1-1.5-1.4-1.7c-0.6-0.2-1.2-0.1-1.7,0.1l-3.1,0.7l2.5,10.5l3.5-0.8
					c0.3-0.1,0.9-0.2,1.3-0.9c0.6-0.8,0.4-1.6,0.2-2.4l-1.1-4.9C-16.8-76.5-16.9-76.7-16.9-76.9z M-17.5-70.8c0.1,0.3,0.2,0.6-0.1,1
					c-0.2,0.3-0.5,0.3-0.8,0.4l-0.8,0.2l-1.7-7.4l0.7-0.2c0.2,0,0.4-0.1,0.6-0.1c0.6,0,0.8,0.4,0.9,0.9L-17.5-70.8z"/>
				<path class="st2" d="M-5.3-80.2l-0.3,10.7l5.2,0.1V-71l-3.2-0.1l0.1-2.5l3,0.1v-1.6l-3-0.1l0.1-3.3L0-78.4v-1.7L-5.3-80.2z"/>
				<path class="st2" d="M15.8-77L13-72.9l-0.7-0.2l1.4-4.6l-1.9-0.6L8.7-67.9l3.8,1.1c1.3,0.4,2,0,2.4-1.3l0.6-1.9
					c0.3-1,0.1-1.6-0.7-2.1l3-4.4L15.8-77z M13.2-69.1c-0.2,0.6-0.5,0.8-1.1,0.6l-1-0.3l0.8-2.7l1,0.3c0.7,0.2,0.8,0.5,0.6,1.2
					L13.2-69.1z"/>
				<path class="st2" d="M31.7-69.6l-5.9,5.8l4.4-6.7l-1.6-1l-5.7,9.1l2.2,1.4l5.8-5.6L26.5-60l1.5,1l5.7-9.1L31.7-69.6z"/>
				<path class="st2" d="M45.8-57.5l-1.5,1l-1.2-1.3l1.1-1.4l-1.3-1.5l-6.5,8.8l1.5,1.7l9.3-5.8L45.8-57.5z M39.2-52.9l2.9-3.7
					l0.9,1L39.2-52.9z"/>
			</g>
		</g>
	</g>
</symbol>
<use xlink:href="#New_Symbol_1"  width="312.4" height="227" id="XMLID_1_" x="-156.2" y="-113.5" transform="matrix(0.7593 0 0 -0.7593 118.5719 86.1639)" style="overflow:visible;"/>
</svg>
