<?xml version="1.0" encoding="utf-8"?>
<!-- Generator: Adobe Illustrator 18.0.0, SVG Export Plug-In . SVG Version: 6.00 Build 0)  -->
<!DOCTYPE svg PUBLIC "-//W3C//DTD SVG 1.1//EN" "http://www.w3.org/Graphics/SVG/1.1/DTD/svg11.dtd">
<svg version="1.1" id="Layer_1" xmlns="http://www.w3.org/2000/svg" xmlns:xlink="http://www.w3.org/1999/xlink" x="0px" y="0px"
	 viewBox="0 0 34.5 27.8" enable-background="new 0 0 34.5 27.8" xml:space="preserve">
<g>
	<g>
		<g>
			<path fill="#092A30" d="M8.3,7.6c4,10.5,13.3,17.8,24.6,18.9c0.8,0.1,0.8-1.2,0-1.2c-10.6-1.1-19.6-8-23.4-18
				C9.3,6.5,8.1,6.8,8.3,7.6L8.3,7.6z"/>
		</g>
	</g>
	<g>
		<g>
			<path fill="#092A30" d="M2.3,12.8c0-3.7,0-7.4,0.1-11.1C2.1,1.9,1.9,2.1,1.7,2.4C5.3,2,8.6,3,11.4,5.3C12,5.9,12.9,5,12.2,4.5
				c-3-2.5-6.6-3.7-10.5-3.3c-0.3,0-0.6,0.3-0.6,0.6c0,3.7,0,7.4-0.1,11.1C1,13.6,2.3,13.6,2.3,12.8L2.3,12.8z"/>
		</g>
	</g>
</g>
</svg>
